Coordinates
version=1
nRows=32
nColumns=38
inDegrees=no

Units are S.I. units (second, meters, Newtons, ...)
If the header above contains a line with 'inDegrees', this indicates whether rotational values are in degrees (yes) or radians (no).

endheader
time	pelvis_tilt	pelvis_list	pelvis_rotation	pelvis_tx	pelvis_ty	pelvis_tz	hip_flexion_r	hip_adduction_r	hip_rotation_r	knee_angle_r	ankle_angle_r	subtalar_angle_r	mtp_angle_r	hip_flexion_l	hip_adduction_l	hip_rotation_l	knee_angle_l	ankle_angle_l	subtalar_angle_l	mtp_angle_l	lumbar_extension	lumbar_bending	lumbar_rotation	arm_flex_r	arm_add_r	arm_rot_r	elbow_flex_r	pro_sup_r	wrist_flex_r	wrist_dev_r	arm_flex_l	arm_add_l	arm_rot_l	elbow_flex_l	pro_sup_l	wrist_flex_l	wrist_dev_l
5	1.85718	1.42905	-0.325697	0.754629	1.2463	0.985945	0.0951405	0.167031	-0.208196	0.253179	0.0368445	0	0	0.162822	-0.174814	-0.061968	0.942851	0.127715	0	0	-0.218102	0.146674	0.122935	0.334262	-0.226153	0.302123	1.69926	1.5708	0	0	0.467402	-0.310821	0.390582	1.41355	1.5708	0	0
5.01	1.86161	1.43058	-0.335028	0.755462	1.25132	0.986287	0.0873395	0.166266	-0.203257	0.250525	0.0399506	0	0	0.169781	-0.173076	-0.0654215	0.915131	0.131889	0	0	-0.220407	0.143941	0.128695	0.334928	-0.223558	0.301856	1.69673	1.5708	0	0	0.47073	-0.312404	0.39206	1.40949	1.5708	0	0
5.02	1.86174	1.43225	-0.339356	0.756192	1.2563	0.986537	0.0803614	0.165433	-0.198482	0.247848	0.0426211	0	0	0.176934	-0.171173	-0.068357	0.885478	0.133923	0	0	-0.221982	0.1414	0.1336	0.336106	-0.220903	0.301341	1.69414	1.5708	0	0	0.473951	-0.313669	0.39274	1.40613	1.5708	0	0
5.03	1.85925	1.43381	-0.340849	0.756803	1.2612	0.986712	0.0741627	0.16462	-0.193738	0.245872	0.0449208	0	0	0.183802	-0.169212	-0.0706985	0.854214	0.133592	0	0	-0.223367	0.139292	0.138373	0.338218	-0.219078	0.30103	1.69205	1.5708	0	0	0.477509	-0.314308	0.393531	1.40308	1.5708	0	0
5.04	1.85372	1.43519	-0.339097	0.757366	1.26608	0.986796	0.0687494	0.164026	-0.1902	0.244564	0.0470742	0	0	0.190576	-0.167822	-0.0734865	0.82187	0.133406	0	0	-0.224355	0.137588	0.142782	0.341156	-0.217568	0.301227	1.69059	1.5708	0	0	0.48107	-0.314807	0.394561	1.40049	1.5708	0	0
5.05	1.85195	1.43665	-0.34139	0.757915	1.27098	0.986917	0.0627114	0.163152	-0.186185	0.242906	0.0491161	0	0	0.195474	-0.166446	-0.0780529	0.786702	0.132442	0	0	-0.225809	0.135522	0.147229	0.344589	-0.215998	0.301804	1.68903	1.5708	0	0	0.484676	-0.315294	0.395761	1.39705	1.5708	0	0
5.06	1.84634	1.43809	-0.339114	0.758351	1.27588	0.986967	0.0572836	0.162235	-0.182889	0.241155	0.0511623	0	0	0.200409	-0.165056	-0.0817924	0.750272	0.131395	0	0	-0.226601	0.13386	0.150781	0.348306	-0.215108	0.30343	1.6868	1.5708	0	0	0.48804	-0.315599	0.396751	1.39351	1.5708	0	0
5.07	1.84053	1.43937	-0.33665	0.758743	1.2808	0.986966	0.0516871	0.161416	-0.179563	0.239158	0.05344	0	0	0.204643	-0.163878	-0.0862918	0.712718	0.13012	0	0	-0.227307	0.132397	0.154247	0.3522	-0.214685	0.305214	1.68402	1.5708	0	0	0.491258	-0.315638	0.397584	1.39053	1.5708	0	0
5.08	1.83327	1.44026	-0.33304	0.759126	1.28575	0.986877	0.0459435	0.161087	-0.175977	0.23697	0.0563315	0	0	0.208254	-0.163363	-0.0917963	0.674409	0.128811	0	0	-0.231381	0.130214	0.148219	0.363679	-0.210892	0.316734	1.67841	1.5708	0	0	0.468874	-0.274267	0.170219	1.53006	0.946587	0	0
5.09	1.82371	1.44168	-0.326645	0.759529	1.29071	0.986728	0.0408458	0.160275	-0.172835	0.235225	0.0599786	0	0	0.211767	-0.16217	-0.0964916	0.635156	0.12578	0	0	-0.22765	0.129493	0.160437	0.35997	-0.214364	0.30801	1.6784	1.5708	0	0	0.497794	-0.317784	0.403974	1.38834	1.5708	0	0
5.1	1.80226	1.44257	-0.308049	0.759691	1.29568	0.986416	0.0374751	0.160062	-0.170328	0.234183	0.0637895	0	0	0.216504	-0.161628	-0.100737	0.595832	0.122046	0	0	-0.225916	0.129442	0.162827	0.362796	-0.21546	0.308907	1.6773	1.5708	0	0	0.498962	-0.315521	0.401236	1.38654	1.5708	0	0
5.11	1.78321	1.44333	-0.291345	0.759758	1.30071	0.986093	0.0337801	0.159621	-0.16829	0.233348	0.0677175	0	0	0.22002	-0.160882	-0.105047	0.555122	0.116731	0	0	-0.224319	0.129498	0.164495	0.365262	-0.217131	0.310412	1.67673	1.5708	0	0	0.499892	-0.314939	0.401288	1.38592	1.5708	0	0
5.12	1.76364	1.44401	-0.274117	0.759765	1.30579	0.985736	0.0300929	0.159133	-0.165912	0.23254	0.0718467	0	0	0.222747	-0.160158	-0.10994	0.51338	0.109561	0	0	-0.222489	0.12966	0.165994	0.367112	-0.219199	0.31193	1.67636	1.5708	0	0	0.500057	-0.314307	0.400928	1.38527	1.5708	0	0
5.13	1.73706	1.44447	-0.249792	0.759711	1.3109	0.985267	0.0274556	0.158946	-0.163826	0.232128	0.0760323	0	0	0.226049	-0.159804	-0.114978	0.472147	0.101437	0	0	-0.219548	0.130283	0.167109	0.368443	-0.2216	0.313438	1.67556	1.5708	0	0	0.499412	-0.313578	0.39988	1.38526	1.5708	0	0
5.14	1.70561	1.4449	-0.220484	0.759601	1.31606	0.984712	0.0256892	0.158749	-0.162276	0.232396	0.080245	0	0	0.229342	-0.159289	-0.120069	0.430437	0.0914226	0	0	-0.215734	0.131045	0.16794	0.369561	-0.22415	0.315103	1.67452	1.5708	0	0	0.498251	-0.312679	0.39869	1.38611	1.5708	0	0
5.15	1.66851	1.44489	-0.185116	0.759436	1.32127	0.984071	0.0247796	0.158927	-0.161192	0.233064	0.0848314	0	0	0.232912	-0.159057	-0.124565	0.388699	0.079555	0	0	-0.211022	0.132382	0.168245	0.370646	-0.226695	0.316863	1.67329	1.5708	0	0	0.496645	-0.31147	0.396718	1.3874	1.5708	0	0
5.16	1.62795	1.44447	-0.145885	0.759149	1.3265	0.983345	0.0242879	0.159299	-0.160348	0.233674	0.0899319	0	0	0.236577	-0.158899	-0.128308	0.347186	0.0652668	0	0	-0.205666	0.134281	0.167862	0.372221	-0.229162	0.319109	1.67196	1.5708	0	0	0.494411	-0.309867	0.393789	1.38901	1.5708	0	0
5.17	1.58325	1.44358	-0.102501	0.758809	1.33179	0.982535	0.0243184	0.159898	-0.159428	0.234185	0.0953596	0	0	0.240418	-0.159067	-0.131659	0.306342	0.0486486	0	0	-0.199516	0.13661	0.167147	0.374065	-0.231559	0.321989	1.67032	1.5708	0	0	0.49174	-0.308162	0.390396	1.39046	1.5708	0	0
5.18	1.53625	1.44195	-0.0560719	0.758328	1.33708	0.981637	0.0248058	0.160854	-0.158836	0.234832	0.100005	0	0	0.244758	-0.15944	-0.133494	0.266576	0.0302676	0	0	-0.192807	0.139752	0.165686	0.375767	-0.234022	0.324401	1.66983	1.5708	0	0	0.489058	-0.3062	0.386876	1.39174	1.5708	0	0
5.19	1.48482	1.43902	-0.00506942	0.75779	1.34242	0.980564	0.0262569	0.16272	-0.158622	0.236078	0.105114	0	0	0.253197	-0.1624	-0.14083	0.23512	0.0148293	0	0	-0.18492	0.144144	0.164153	0.377458	-0.236496	0.326941	1.6696	1.5708	0	0	0.485989	-0.304167	0.383052	1.39269	1.5708	0	0
5.2	1.43426	1.43578	0.0450151	0.757243	1.34778	0.979469	0.0281705	0.164374	-0.158926	0.237944	0.110799	0	0	0.259375	-0.164065	-0.141945	0.200056	-0.00234384	0	0	-0.180367	0.147278	0.153026	0.387049	-0.23501	0.340031	1.66584	1.5708	0	0	0.458033	-0.261454	0.156715	1.53803	0.986462	0	0
5.21	1.3845	1.43283	0.0945685	0.756797	1.35315	0.978376	0.030298	0.165468	-0.159995	0.239745	0.116665	0	0	0.264294	-0.164522	-0.138815	0.163722	-0.0200155	0	0	-0.168376	0.151576	0.16059	0.380971	-0.240519	0.332974	1.66774	1.5708	0	0	0.48037	-0.303071	0.380043	1.39692	1.5708	0	0
5.22	1.33327	1.42891	0.14493	0.756346	1.35853	0.977202	0.0335658	0.167029	-0.160624	0.242531	0.122418	0	0	0.267661	-0.16516	-0.130796	0.124904	-0.0385974	0	0	-0.159261	0.155364	0.159868	0.381415	-0.242282	0.334483	1.66814	1.5708	0	0	0.477224	-0.300369	0.375068	1.39805	1.5708	0	0
5.23	1.28693	1.42408	0.190207	0.755882	1.36398	0.97595	0.0367437	0.169271	-0.160835	0.245739	0.128233	0	0	0.273621	-0.167925	-0.127705	0.0944222	-0.0512647	0	0	-0.150113	0.159718	0.159468	0.38109	-0.244188	0.335631	1.66879	1.5708	0	0	0.474676	-0.299469	0.374123	1.40023	1.5708	0	0
5.24	1.25495	1.41979	0.219981	0.755457	1.36964	0.974862	0.037477	0.171134	-0.159554	0.24871	0.133849	0	0	0.276381	-0.170775	-0.125378	0.0652	-0.0605312	0	0	-0.142793	0.163457	0.160403	0.379815	-0.246115	0.336136	1.66973	1.5708	0	0	0.471976	-0.298805	0.373603	1.4022	1.5708	0	0
5.25	1.23974	1.41668	0.231746	0.755063	1.37557	0.974019	0.0347439	0.172269	-0.156742	0.251009	0.139135	0	0	0.274748	-0.173385	-0.124007	0.0367304	-0.0668905	0	0	-0.138054	0.166294	0.162737	0.377954	-0.248108	0.336587	1.67048	1.5708	0	0	0.469058	-0.29835	0.373724	1.40441	1.5708	0	0
5.26	1.27542	1.42218	0.189586	0.754571	1.38212	0.974364	0.0201102	0.165557	-0.152053	0.251819	0.144742	0	0	0.258136	-0.169072	-0.12907	0.00531378	-0.0732121	0	0	-0.143648	0.161572	0.167883	0.376029	-0.249605	0.337201	1.66961	1.5708	0	0	0.466507	-0.297998	0.374011	1.40618	1.5708	0	0
5.27	1.21735	1.41199	0.248134	0.753923	1.38738	0.972489	0.0285762	0.172695	-0.150986	0.256908	0.149429	0	0	0.271222	-0.177606	-0.118082	0	-0.0699226	0	0	-0.130134	0.17082	0.166521	0.37471	-0.251809	0.33754	1.67008	1.5708	0	0	0.46411	-0.297363	0.37434	1.4092	1.5708	0	0
5.28	1.2236	1.41181	0.240984	0.753042	1.39257	0.971748	0.0251037	0.177244	-0.137951	0.26375	0.14892	0	0	0.280032	-0.177342	-0.109316	0	-0.06778	0	0	-0.130116	0.171013	0.167695	0.373479	-0.251128	0.338249	1.67034	1.5708	0	0	0.463518	-0.295366	0.377229	1.41247	1.5708	0	0
5.29	1.22434	1.41049	0.237988	0.752603	1.39837	0.971126	0.0204134	0.176428	-0.135384	0.267696	0.155048	0	0	0.283197	-0.179929	-0.108047	0	-0.0616686	0	0	-0.128319	0.172578	0.168906	0.371957	-0.252299	0.337109	1.66995	1.5708	0	0	0.461724	-0.295274	0.378993	1.41484	1.5708	0	0
5.3	1.26679	1.41685	0.19067	0.751802	1.40474	0.971535	0.00561934	0.16881	-0.130231	0.270629	0.160911	0	0	0.274033	-0.176315	-0.114609	0	-0.055812	0	0	-0.135442	0.167276	0.172404	0.37037	-0.252709	0.336211	1.66944	1.5708	0	0	0.460209	-0.295462	0.380932	1.4166	1.5708	0	0
5.31	1.242	1.41352	0.21465	0.750764	1.41046	0.970465	0.00747538	0.168995	-0.128607	0.27767	0.166996	0	0	0.28006	-0.179358	-0.109489	0	-0.0484104	0	0	-0.128865	0.170603	0.171477	0.368798	-0.25409	0.335592	1.67073	1.5708	0	0	0.458199	-0.295376	0.382787	1.41891	1.5708	0	0
